{"title":"Eazy E Discografia - 6 CD (1987-2002) [Mp3 160-256 Kbps] Rap MIR","uid":9234527,"size":403961919,"categoryP":"audio","categoryS":"music","magnet":"?xt=urn:btih:a951211dfe8544b122b5f6c5018b6a7dffeeb660&amp;dn=Eazy+E+Discografia+-+6+CD+%281987-2002%29+%5BMp3+160-256+Kbps%5D+Rap+MIR&amp;tr=udp%3A%2F%2Ftracker.openbittorrent.com%3A80&amp;tr=udp%3A%2F%2Fopen.demonii.com%3A1337&amp;tr=udp%3A%2F%2Ftracker.coppersurfer.tk%3A6969&amp;tr=udp%3A%2F%2Fexodus.desync.com%3A6969","seeders":10,"leechers":2,"uploader":"Freetnt","files":67,"time":1385145066,"description":"he discography of Eazy-E, an American rapper from Compton, California, consists of two studio albums, three extended plays, two compilation albums, and eight singles. Eazy was also featured on the single &quot;Game Wreck-Oniz-Iz Game&quot; by Above the Law and &quot;Foe tha Love of $&quot; by Bone Thugs-n-Harmony. His music has been released through record labels Ruthless Records, Priority Records, Relativity Records, and Epic Records. Five of his albums have been awarded a certification by the Recording Industry Association of America (RIAA). This discography includes music videos and collaborations as well as albums.\n\nEazy-E's music career started in 1986 with the hip hop group N.W.A, where he would perform on all four of the studio albums. In 1988, before N.W.A had disbanded, Eazy released Eazy-Duz-It as his first solo effort. Eazy-Duz-It peaked at number 41 on the Billboard 200 and became Eazy's most successful album, selling 3 million albums in the US by 1994.[1] In 1992 it was certified double Platinum by the RIAA. The album's first single, &quot;Eazy-er Said Than Dunn&quot;, would go on to peak at number 84 on the Hot R&amp;B/Hip-Hop Songs. &quot;Eazy-Duz-It&quot; was released in 1989 and only charted on the Hot Dance Singles Sales chart. &quot;We Want Eazy&quot; was also released in 1989 and charted on both the Hot Rap Tracks chart and the Hot R&amp;B/Hip-Hop Songs chart.\n\n\n[u]Album presenti nella release:[/u]\n\nEazy E - Eazy-Duz-It (1987)\nEazy E - 5150 - Home 4 Tha Sick (1992)\nEazy E - It's On (Dr. Dre) 187um Killa (1993)\nEazy E - Eternal E (1995)\nEazy E - Str8 Off Tha Streetz Of Muthaphukkin' Compton (1995)\nEazy E - Impact Of A Legend (2002)\n\n\n[u]Dati File:[/u]\n \nAudio\nFormat                           : MPEG Audio\nFormat version                   : Version 1\nFormat profile                   : Layer 3\nMode                             : Joint stereo\nMode extension                   : MS Stereo\nDuration                         : 5mn 9s\nBit rate mode                    : Constant\nBit rate                         : 160 Kbps\nChannel(s)                       : 2 channels\nSampling rate                    : 44.1 KHz\nStream size                      : 5.90 MiB (100%)\n\n\nAudio\nFormat                           : MPEG Audio\nFormat version                   : Version 1\nFormat profile                   : Layer 3\nDuration                         : 3mn 3s\nBit rate mode                    : Constant\nBit rate                         : 192 Kbps\nChannel(s)                       : 2 channels\nSampling rate                    : 44.1 KHz\nStream size                      : 4.20 MiB (100%)\nWriting library                  : LAME3.89 (beta)\n\n\nAudio\nFormat                           : MPEG Audio\nFormat version                   : Version 1\nFormat profile                   : Layer 3\nDuration                         : 4mn 21s\nBit rate mode                    : Constant\nBit rate                         : 256 Kbps\nChannel(s)                       : 2 channels\nSampling rate                    : 44.1 KHz\nStream size                      : 7.98 MiB (100%)","torrent":{"xt":"urn:btih:a951211dfe8544b122b5f6c5018b6a7dffeeb660","amp;dn":"Eazy+E+Discografia+-+6+CD+%281987-2002%29+%5BMp3+160-256+Kbps%5D+Rap+MIR","amp;tr":["udp%3A%2F%2Ftracker.openbittorrent.com%3A80","udp%3A%2F%2Fopen.demonii.com%3A1337","udp%3A%2F%2Ftracker.coppersurfer.tk%3A6969","udp%3A%2F%2Fexodus.desync.com%3A6969"],"infoHash":"a951211dfe8544b122b5f6c5018b6a7dffeeb660","infoHashBuffer":{"type":"Buffer","data":[169,81,33,29,254,133,68,177,34,181,246,197,1,139,106,125,255,238,182,96]},"announce":[],"urlList":[]}}